<svg width="406" height="306" viewBox="0 0 406 306" fill="none" xmlns="http://www.w3.org/2000/svg">
<g clip-path="url(#clip0_1_3)">
<path opacity="0.18" d="M193.129 27.0754C191.296 27.3403 189.462 27.5523 187.629 27.7218C150.624 31.1023 111.468 15.1961 77.1655 29.4703C34.0356 47.4853 21.8596 102.961 24.3287 149.62C25.7334 176.251 29.928 202.662 36.8438 228.419C43.308 252.453 53.4599 277.579 74.5692 290.761C91.6622 301.475 112.856 302.408 132.991 303.043L213.835 305.555C246.315 306.562 280.47 307.197 309.209 292.054C342.664 274.431 373.247 231.333 380.739 194.424C384.321 176.737 379.202 163.226 378.524 145.805C377.57 120.955 383.452 97.8954 378.185 72.8122C371.752 42.208 351.915 12.4091 322.021 3.21089C279.643 -9.89764 237.17 20.9185 193.129 27.0754Z" fill="#68E1FD"/>
<path opacity="0.18" d="M205.199 271.04C284.624 271.04 349.011 262.885 349.011 252.824C349.011 242.763 284.624 234.608 205.199 234.608C125.774 234.608 61.3865 242.763 61.3865 252.824C61.3865 262.885 125.774 271.04 205.199 271.04Z" fill="#68E1FD"/>
<path d="M176.439 120.414L190.723 107.888C191.008 107.584 191.377 107.37 191.783 107.274C192.038 107.268 192.291 107.316 192.525 107.417C192.759 107.518 192.969 107.668 193.139 107.857C194.856 109.478 195.058 112.233 194.199 114.459C193.257 116.632 191.9 118.601 190.204 120.255L179.702 131.912C179.002 132.786 178.165 133.541 177.223 134.148C176.158 134.717 174.965 135.005 173.757 134.985C171.025 134.846 168.347 134.172 165.873 133.003C161.634 131.297 157.025 129.294 154.746 125.289C152.245 120.902 152.754 108.397 159.441 107.666C165.672 107.019 172.878 116.567 176.439 120.414Z" fill="#68E1FD"/>
<path d="M176.439 120.414L190.723 107.888C191.008 107.584 191.377 107.37 191.783 107.274C192.038 107.268 192.291 107.316 192.525 107.417C192.759 107.518 192.969 107.668 193.139 107.857C194.856 109.478 195.058 112.233 194.199 114.459C193.257 116.632 191.9 118.601 190.204 120.255L179.702 131.912C179.002 132.786 178.165 133.541 177.223 134.148C176.158 134.717 174.965 135.005 173.757 134.985C171.025 134.846 168.347 134.172 165.873 133.003C161.634 131.297 157.025 129.294 154.746 125.289C152.245 120.902 152.754 108.397 159.441 107.666C165.672 107.019 172.878 116.567 176.439 120.414Z" fill="url(#paint0_linear_1_3)"/>
<path d="M190.458 107.782C190.458 107.782 182.829 99.8453 184.46 96.8993C186.092 93.9533 192.218 91.5054 193.171 92.1836C194.125 92.8618 208.537 114.702 208.537 114.702L207.594 117.362L212.352 123.551L209.289 126.2L204.054 120.382L198.756 119.217L190.458 107.782Z" fill="#3E3E52"/>
<path d="M190.458 107.782C190.458 107.782 182.829 99.8453 184.46 96.8993C186.092 93.9533 192.218 91.5054 193.171 92.1836C194.125 92.8618 208.537 114.702 208.537 114.702L207.594 117.362L212.352 123.551L209.289 126.2L204.054 120.382L198.756 119.217L190.458 107.782Z" fill="url(#paint1_linear_1_3)"/>
<path d="M238.219 201.799C231.571 214.855 224.62 227.748 217.364 240.479C221.648 240.957 225.984 240.513 230.081 239.175C230.925 238.964 231.696 238.524 232.306 237.903C233.111 236.929 233.08 235.551 233.239 234.311C233.641 232.069 234.437 229.916 235.591 227.953C238.252 222.841 241.257 217.916 244.588 213.212C249.346 206.483 254.931 199.881 256.499 191.796C256.688 191.199 256.635 190.552 256.351 189.994C256.082 189.714 255.747 189.504 255.377 189.386C255.007 189.267 254.613 189.243 254.231 189.316C250.764 189.532 247.493 190.996 245.023 193.438" fill="#E4A98A"/>
<path d="M265.009 203.283L256.849 200.835L246.231 248.734H248.679" fill="#3E3E52"/>
<path d="M286.987 203.283L295.157 200.835L305.765 248.734H303.317" fill="#3E3E52"/>
<path d="M306.496 143.092C311.975 144.586 315.874 149.757 317.263 155.268C318.651 160.778 317.898 166.596 316.733 172.159C314.846 181.209 311.583 190.439 304.716 196.628C300.318 200.591 294.744 202.986 289.17 205.031C283.596 207.077 277.916 208.719 272.045 208.666C266.174 208.613 260.113 206.642 256.149 202.308C254.092 199.947 252.733 197.059 252.224 193.969C251.715 190.879 252.076 187.709 253.267 184.812C255.386 179.895 259.731 176.335 264.33 173.558C268.929 170.782 273.868 168.737 278.329 165.716C284.286 161.701 289.303 156.445 293.038 150.308C295.931 145.275 300.148 141.354 306.496 143.092Z" fill="#68E1FD"/>
<path d="M256.181 202.276C260.102 206.642 266.185 208.634 272.077 208.634C277.969 208.634 283.734 206.992 289.202 205C294.67 203.007 300.35 200.559 304.747 196.596C311.625 190.408 314.878 181.167 316.764 172.128C317.93 166.564 318.672 160.746 317.284 155.236C315.896 149.726 311.985 144.554 306.528 143.06C305.152 142.664 303.71 142.549 302.289 142.721C298.22 143.261 295.252 146.44 293.08 150.245C289.346 156.381 284.328 161.638 278.371 165.653C274.975 167.818 271.458 169.788 267.838 171.555C266.672 172.181 265.517 172.816 264.383 173.495C259.774 176.239 255.408 179.853 253.309 184.749C252.111 187.648 251.745 190.825 252.252 193.921C252.759 197.017 254.12 199.911 256.181 202.276V202.276Z" fill="url(#paint2_linear_1_3)"/>
<path d="M258.767 184.6C258.929 185.3 259.268 185.946 259.752 186.476C260.77 187.762 261.798 189.033 262.836 190.291C263.77 191.543 264.935 192.605 266.27 193.417C267.859 194.143 269.601 194.47 271.346 194.371C275.807 194.382 280.236 193.629 284.444 192.145C287.935 191.072 291.085 189.103 293.578 186.434C295.407 184.047 296.838 181.381 297.817 178.539C299.936 173.24 302.056 167.942 302.617 162.294C302.893 159.591 302.808 156.857 303.168 154.155C303.635 150.563 304.906 145.55 302.278 142.753C298.209 143.293 295.242 146.472 293.069 150.277C289.335 156.413 284.317 161.669 278.361 165.685C274.964 167.849 271.447 169.82 267.827 171.587L267.16 172.424C264.394 175.784 260.95 178.687 259.18 182.651C258.862 183.249 258.719 183.925 258.767 184.6V184.6Z" fill="url(#paint3_linear_1_3)"/>
<path d="M245.468 140.527C243.768 139.178 242.543 137.322 241.971 135.229C241.428 133.135 240.741 131.082 239.915 129.082C238.848 126.916 237.172 125.108 235.093 123.879C234.308 123.35 233.38 123.073 232.433 123.085C231.435 123.239 230.511 123.707 229.795 124.42C228.445 125.467 227.532 126.977 227.23 128.659C227.202 129.664 227.391 130.663 227.784 131.588C228.178 132.514 228.766 133.343 229.508 134.021C230.897 135.473 232.582 136.617 233.938 138.09C235.004 139.36 235.992 140.694 236.895 142.085C241.416 148.367 247.917 152.946 255.355 155.088C256.374 155.5 257.514 155.5 258.534 155.088C258.967 154.803 259.347 154.444 259.657 154.028C261.596 151.739 263.387 148.984 263.769 145.942C263.917 144.808 264.002 142.901 263.26 141.915C262.518 140.93 260.674 140.856 259.413 140.856C254.74 140.909 249.876 143.526 245.468 140.527Z" fill="#E4A98A"/>
<path d="M244.577 75.1754C248.096 69.4742 255.726 66.4752 261.999 68.8171C262.58 69.0956 263.21 69.2542 263.853 69.2834C264.532 69.1759 265.186 68.9461 265.782 68.6052C266.958 68.1422 268.214 67.916 269.478 67.9397C270.742 67.9633 271.989 68.2363 273.147 68.743C275.455 69.7656 277.556 71.2022 279.346 72.9818C281.581 74.9244 283.352 77.3433 284.528 80.0606C286.828 86.0373 284.232 92.9678 286.139 99.1353C288.364 106.246 296.143 110.633 298.061 117.839C298.522 119.576 298.596 121.394 298.277 123.162C297.958 124.931 297.255 126.609 296.217 128.076C295.154 129.523 293.756 130.692 292.143 131.481C290.53 132.271 288.75 132.659 286.955 132.611C284.645 132.505 282.43 131.636 280.131 131.371C279.046 131.358 277.972 131.165 276.951 130.799C276.162 130.368 275.478 129.767 274.949 129.04C270.71 123.742 268.961 116.79 264.998 111.258C260.6 105.112 254.051 103.385 248.297 99.0399C244.344 96.0621 243.168 91.6961 242.405 86.9487C241.688 82.8907 242.46 78.7103 244.577 75.1754V75.1754Z" fill="#3E3E52"/>
<path d="M244.811 97.3126L244.323 99.3154C244.187 99.7256 244.165 100.165 244.26 100.587C244.44 101.17 245.023 101.509 245.457 101.922C246.718 103.12 246.888 105.101 247.746 106.574C249.092 108.927 251.985 109.987 254.676 110.124C256.076 110.041 257.477 110.24 258.799 110.707C260.441 111.523 261.278 113.388 261.67 115.179C261.963 116.518 262.077 117.89 262.01 119.259C261.798 123.222 260.07 127.09 260.558 131.022C263.981 130.693 267.139 129.093 270.201 127.514C273.264 125.935 276.761 123.89 277.566 120.478C278.679 115.741 274.896 111.078 274.249 106.532C273.423 100.714 274.122 94.7799 273.327 88.9409C273.099 86.2588 272.135 83.6918 270.54 81.523C269.432 80.2617 268.094 79.2225 266.598 78.4604C260.6 75.2072 253.161 76.0867 249.442 82.2542C247.989 84.9603 246.96 87.8729 246.39 90.8908L244.811 97.3126Z" fill="#E4A98A"/>
<path d="M276.135 118.39C276.135 118.39 275.076 117.161 273.041 118.39C271.006 119.619 262.73 131.234 260.558 131.032C258.385 130.831 254.401 139.181 255.524 143.198C256.647 147.214 259.763 149.927 260.113 154.409C260.462 158.892 263.175 169.002 263.175 169.002L246.22 175.943C246.22 175.943 251.889 197.783 252.939 197.137C253.988 196.49 279.696 191.118 283.977 184.95C288.258 178.783 287.04 168.768 287.04 168.768C287.04 168.768 279.113 134.54 280.512 127.747C280.954 125.922 280.761 124.002 279.966 122.301C279.17 120.6 277.819 119.221 276.135 118.39Z" fill="#68E1FD"/>
<path d="M276.135 118.39C276.135 118.39 275.076 117.161 273.041 118.39C271.006 119.619 262.73 131.234 260.558 131.032C258.385 130.831 254.401 139.181 255.524 143.198C256.647 147.214 259.763 149.927 260.113 154.409C260.462 158.892 263.175 169.002 263.175 169.002L246.22 175.943C246.22 175.943 251.889 197.783 252.939 197.137C253.988 196.49 279.696 191.118 283.977 184.95C288.258 178.783 287.04 168.768 287.04 168.768C287.04 168.768 279.113 134.54 280.512 127.747C280.954 125.922 280.761 124.002 279.966 122.301C279.17 120.6 277.819 119.221 276.135 118.39Z" fill="url(#paint4_linear_1_3)"/>
<path d="M130.161 203.283L122.002 200.835L111.383 248.734H113.831" fill="#3E3E52"/>
<path d="M146.354 203.283L154.524 200.835L165.131 248.734H162.684" fill="#3E3E52"/>
<path d="M199.116 247.78C199.349 247.788 199.58 247.733 199.784 247.621C200.43 247.218 200.049 246.212 199.551 245.639C198.417 244.441 197.151 243.375 195.778 242.46L190.48 238.645C189.989 238.211 189.417 237.879 188.796 237.67C188.176 237.46 187.519 237.378 186.866 237.427L182.33 237.225C182.003 237.187 181.672 237.231 181.366 237.352C181.017 237.559 180.75 237.881 180.614 238.264C179.955 239.879 179.613 241.606 179.607 243.35C179.503 244.121 179.613 244.906 179.925 245.618C180.54 246.741 182.193 246.805 183.305 246.996C185.075 247.292 186.845 247.536 188.604 247.706C192.1 248.015 195.616 248.039 199.116 247.78V247.78Z" fill="#68E1FD"/>
<path d="M110.663 143.092C105.184 144.586 101.284 149.757 99.8961 155.268C98.5079 160.778 99.2603 166.596 100.426 172.159C102.312 181.209 105.576 190.439 112.443 196.628C116.841 200.591 122.415 202.986 127.989 205.031C133.563 207.077 139.243 208.719 145.114 208.666C150.984 208.613 157.057 206.642 161.009 202.308C163.066 199.947 164.425 197.059 164.934 193.969C165.443 190.879 165.082 187.709 163.892 184.812C161.772 179.895 157.427 176.335 152.828 173.558C148.229 170.782 143.291 168.737 138.83 165.716C132.873 161.701 127.855 156.445 124.121 150.308C121.228 145.275 117.01 141.354 110.663 143.092Z" fill="#68E1FD"/>
<path d="M160.977 202.276C157.057 206.642 150.984 208.634 145.082 208.634C139.179 208.634 133.425 206.992 127.957 205C122.489 203.007 116.809 200.559 112.411 196.596C105.544 190.408 102.28 181.167 100.394 172.128C99.2285 166.564 98.4867 160.746 99.8749 155.236C101.263 149.726 105.173 144.554 110.631 143.06C112.007 142.664 113.448 142.549 114.87 142.721C118.939 143.261 121.906 146.44 124.079 150.245C127.813 156.381 132.831 161.638 138.787 165.653C142.184 167.818 145.701 169.788 149.321 171.555C150.486 172.181 151.641 172.816 152.786 173.495C157.385 176.239 161.751 179.853 163.849 184.749C165.048 187.648 165.414 190.825 164.907 193.921C164.399 197.017 163.039 199.911 160.977 202.276V202.276Z" fill="url(#paint5_linear_1_3)"/>
<path d="M158.424 184.6C158.262 185.3 157.922 185.946 157.438 186.476C156.431 187.758 155.393 189.03 154.354 190.291C153.423 191.546 152.257 192.607 150.921 193.417C149.331 194.143 147.589 194.47 145.845 194.371C141.384 194.382 136.954 193.629 132.747 192.145C129.255 191.072 126.106 189.103 123.612 186.434C121.784 184.047 120.353 181.381 119.373 178.539C117.254 173.24 115.135 167.942 114.573 162.294C114.298 159.591 114.382 156.857 114.022 154.155C113.556 150.563 112.284 145.55 114.912 142.753C118.981 143.293 121.949 146.472 124.121 150.277C127.855 156.413 132.873 161.669 138.83 165.685C142.227 167.849 145.743 169.82 149.363 171.587L150.031 172.424C152.797 175.784 156.241 178.687 158.01 182.651C158.328 183.249 158.471 183.925 158.424 184.6V184.6Z" fill="url(#paint6_linear_1_3)"/>
<path d="M131.221 184.399C131.221 184.399 129.377 191.425 146.767 190.757C164.157 190.09 180.508 187.811 180.508 187.811V238.974H189.685C189.685 238.974 192.218 185.914 192.218 177.744C192.218 169.574 151.324 167.677 151.324 167.677L131.221 184.399Z" fill="#3E3E52"/>
<path d="M131.221 184.399C131.221 184.399 129.377 191.425 146.767 190.757C164.157 190.09 180.508 187.811 180.508 187.811V238.974H189.685C189.685 238.974 192.218 185.914 192.218 177.744C192.218 169.574 151.324 167.677 151.324 167.677L131.221 184.399Z" fill="url(#paint7_linear_1_3)"/>
<path d="M183.464 85.4969C183.464 87.86 183.644 90.3821 185.096 92.2472C185.552 92.83 186.156 93.4976 185.933 94.1971C185.758 94.5652 185.492 94.8825 185.16 95.119C183.602 96.5284 183.04 98.7008 182.394 100.704C181.748 102.706 180.783 104.836 178.876 105.727C176.968 106.617 174.584 105.96 172.518 106.553C170.133 107.253 168.554 109.489 167.357 111.672C167.177 111.979 166.975 112.329 166.626 112.424C166.349 112.468 166.066 112.419 165.82 112.286C163.402 111.337 161.089 110.137 158.922 108.704C158.751 108.615 158.614 108.474 158.53 108.302C158.48 108.091 158.506 107.87 158.604 107.676C160.924 101.181 159.504 94.0381 159.229 87.15C159.091 83.6848 159.303 80.05 160.999 77.0193C163.51 72.5473 168.872 70.2901 174.001 70.1842C175.061 70.107 176.124 70.2775 177.106 70.6822C178.004 71.1907 178.795 71.867 179.437 72.6745C182.68 76.2669 183.433 80.76 183.464 85.4969Z" fill="#E4A98A"/>
<path d="M184.111 74.7621C181.673 76.3728 179.777 79.2234 176.862 79.4142C175.84 79.3294 174.812 79.3294 173.789 79.4142C172.009 79.8169 170.992 81.6714 170.398 83.3987C169.594 85.925 168.996 88.512 168.607 91.1345C168.156 89.9813 167.474 88.9321 166.604 88.0508C166.198 87.5734 165.638 87.2511 165.021 87.1384C164.404 87.0258 163.767 87.1295 163.218 87.4323C162.668 87.735 162.24 88.2181 162.006 88.8C161.771 89.3819 161.745 90.0268 161.931 90.6258C162.207 91.8107 162.719 92.9279 163.436 93.9109C162.313 95.882 161.143 97.8283 159.928 99.7499C157.35 96.3912 155.194 92.7291 153.507 88.8455C151.807 84.9527 151.079 80.7048 151.387 76.4682C151.566 73.5239 152.679 70.7135 154.566 68.4463C155.52 67.3301 156.751 66.4835 158.134 65.9908C159.517 65.4981 161.005 65.3765 162.45 65.638C162.792 65.7504 163.153 65.7901 163.51 65.7546C163.838 65.643 164.138 65.4623 164.39 65.2248C168.077 62.2894 173.122 61.7701 177.827 62.0456C180.329 62.0322 182.798 62.6248 185.022 63.773C186.247 64.5017 187.239 65.5639 187.883 66.8355C188.474 67.7818 189.015 68.758 189.505 69.7603C190.458 72.2718 185.7 73.7024 184.111 74.7621Z" fill="#3E3E52"/>
<path d="M148.505 109.287C137.501 116.815 129.566 128.044 126.145 140.93C124.094 148.659 123.554 156.712 124.555 164.646C125.049 168.6 125.897 172.501 127.088 176.303C127.554 177.786 128.54 179.418 128.837 180.891C129.059 181.951 128.222 183.763 129.218 184.6C129.478 184.766 129.769 184.877 130.073 184.927C130.378 184.976 130.689 184.962 130.988 184.886C137.655 184.05 143.904 181.182 148.886 176.674C150.491 175.328 151.77 173.636 152.627 171.725C153.549 169.383 153.422 166.776 153.528 164.307C153.771 158.754 155.647 154.197 157.48 149.111C159.314 144.024 160.797 138.779 162.853 133.703C164.449 130.18 165.698 126.51 166.583 122.745C167.462 118.944 167.009 114.957 165.301 111.449C161.327 104.169 154.333 105.398 148.505 109.287Z" fill="#68E1FD"/>
<path d="M166.53 122.703C165.645 126.468 164.396 130.138 162.8 133.66C161.857 135.992 161.03 138.344 160.246 140.707C159.303 143.484 158.413 146.292 157.427 149.079C155.626 154.155 153.708 158.712 153.475 164.265C153.369 166.776 153.475 169.383 152.574 171.683C151.961 173.127 151.072 174.437 149.957 175.54C149.607 175.921 149.225 176.282 148.844 176.6C143.887 181.155 137.65 184.077 130.977 184.971C130.681 185.046 130.372 185.06 130.07 185.012C129.767 184.965 129.478 184.857 129.218 184.696C128.222 183.848 129.059 182.078 128.837 180.976C128.54 179.503 127.554 177.871 127.088 176.388C125.902 172.584 125.054 168.684 124.555 164.731C123.55 156.798 124.086 148.745 126.134 141.015C129.564 128.13 137.502 116.903 148.505 109.372C154.333 105.483 161.327 104.254 165.248 111.491C166.932 114.976 167.384 118.928 166.53 122.703V122.703Z" fill="url(#paint8_linear_1_3)"/>
<path d="M159.769 144.512C161.558 147.066 163.63 149.409 165.947 151.495C167.46 152.941 169.119 154.227 170.896 155.331C174.662 157.462 179.006 158.344 183.304 157.848C187.602 157.353 191.632 155.507 194.814 152.576C196.549 151.008 197.824 148.997 198.502 146.758C198.828 145.639 198.892 144.459 198.69 143.311C198.488 142.163 198.025 141.076 197.336 140.135C196.92 139.576 196.354 139.146 195.704 138.895C194.695 138.648 193.632 138.745 192.684 139.171C188.964 140.485 185.351 142.827 181.43 142.35C177.965 141.958 175.072 139.425 172.952 136.67C169.773 132.558 167.558 127.747 165.534 122.894C162.641 116.122 155.615 114.66 154.471 123.063C153.587 130.618 155.469 138.237 159.769 144.512V144.512Z" fill="#68E1FD"/>
<path d="M198.502 146.758C197.825 149 196.55 151.015 194.814 152.587C191.625 155.508 187.593 157.344 183.296 157.832C178.999 158.319 174.658 157.433 170.896 155.3C169.119 154.195 167.46 152.91 165.947 151.463C163.63 149.377 161.558 147.034 159.769 144.48C155.485 138.222 153.604 130.629 154.471 123.095C154.471 122.873 154.534 122.65 154.577 122.438C155.997 114.787 162.715 116.345 165.534 122.936C167.59 127.737 169.773 132.558 172.952 136.712C175.072 139.457 177.943 142.011 181.43 142.382C185.351 142.827 188.964 140.485 192.684 139.203C193.633 138.782 194.694 138.686 195.704 138.927C196.071 139.054 196.409 139.252 196.7 139.51C196.932 139.705 197.142 139.925 197.325 140.167C198.013 141.102 198.477 142.183 198.681 143.326C198.885 144.469 198.824 145.643 198.502 146.758V146.758Z" fill="url(#paint9_linear_1_3)"/>
<path d="M248.689 157.292C250.278 157.164 251.867 157.535 253.235 158.352C254.56 159.337 255.09 161.043 255.545 162.59C258.332 172.202 261.427 181.888 267.033 190.143C267.434 190.63 267.687 191.222 267.764 191.849C267.722 192.466 267.476 193.051 267.064 193.512C263.885 197.667 258.258 199.055 253.055 198.981C251.659 198.815 250.244 199.008 248.943 199.542C248.021 200.127 247.242 200.913 246.665 201.842C243.857 205.71 240.869 209.885 236.365 211.474C231.861 213.064 226.827 211.824 222.716 213.975C219.537 215.65 217.619 218.967 215.478 221.87C214.662 222.993 213.634 224.159 212.246 224.307C210.296 224.509 208.834 222.676 207.52 221.213C204.817 218.214 201.246 216.169 197.982 213.795C194.718 211.421 191.539 208.497 190.321 204.661C189.664 207.628 185.997 208.899 182.987 208.518C179.978 208.136 177.244 206.504 174.287 205.816C169.603 204.756 164.75 205.911 159.939 206.25C157.152 206.441 153.994 206.187 152.182 204.067C150.508 202.117 150.561 199.161 151.419 196.734C152.277 194.307 153.793 192.167 154.852 189.825C157.141 184.781 157.205 179.058 157.809 173.558C158.328 168.79 159.504 162.06 163.436 158.722C165.375 157.09 168.639 157.663 171.045 157.663C174.595 157.578 178.145 157.493 181.642 157.43C195.941 157.147 210.24 157.023 224.538 157.059C232.599 157.094 240.65 157.172 248.689 157.292Z" fill="#68E1FD"/>
<path d="M262.275 92.3108C263.357 92.5526 264.419 92.8749 265.454 93.2751C265.972 93.4853 266.422 93.8354 266.753 94.2863C267.084 94.7373 267.284 95.2713 267.329 95.829C267.117 94.8435 268.262 93.9639 269.247 94.1759C269.726 94.3276 270.151 94.6143 270.47 95.0016C270.79 95.3888 270.991 95.8601 271.049 96.3588C271.176 97.2417 271 98.1416 270.55 98.9115C270.099 99.6815 269.401 100.276 268.569 100.598C270.381 102.897 270.01 106.14 270.169 109.075C270.355 112.365 271.318 115.565 272.978 118.411C273.995 120.278 275.449 121.871 277.216 123.053C278.456 123.816 280.3 124.197 281.233 123.053C281.641 122.442 281.855 121.721 281.847 120.986C282.843 109.806 283.119 98.2557 279.346 87.7011C278.554 85.302 277.385 83.0447 275.881 81.0143C272.702 76.8921 267.615 74.529 262.476 73.6918C257.548 72.897 251.275 74.2958 253.246 80.3361C254.857 85.179 256.976 90.6576 262.275 92.3108Z" fill="#3E3E52"/>
<path d="M274.08 118.39C272.596 119.241 271.386 120.499 270.593 122.014C266.566 128.648 265.39 136.712 261.31 143.314C260.779 144.251 260.091 145.09 259.276 145.794C258.468 146.386 257.58 146.857 256.637 147.193C251.556 149.208 246.194 150.427 240.741 150.806C238.156 150.987 235.867 151.177 233.504 150.181C232.209 149.627 230.817 149.339 229.409 149.333C228.001 149.327 226.606 149.605 225.308 150.148C224.009 150.692 222.833 151.491 221.849 152.498C220.865 153.504 220.093 154.699 219.579 156.01C219.511 156.152 219.476 156.308 219.476 156.465C219.476 156.623 219.511 156.779 219.579 156.921C219.759 157.239 220.194 157.292 220.565 157.302L225.948 157.525L233.186 157.811H234.479C241.653 158.097 249.706 159.316 256.732 157.26C263.758 155.204 268.643 149.62 273.56 144.438C276.14 141.942 278.445 139.178 280.438 136.193C282.441 133.173 283.263 129.522 282.748 125.935C282.017 122.449 277.64 118.846 274.08 118.39Z" fill="#E4A98A"/>
<path d="M198.502 146.758C197.825 149 196.55 151.015 194.814 152.587C191.625 155.508 187.593 157.344 183.296 157.832C178.999 158.319 174.658 157.433 170.896 155.3C169.119 154.195 167.46 152.91 165.947 151.463C163.63 149.377 161.558 147.034 159.769 144.48C155.485 138.222 153.604 130.629 154.471 123.095C154.471 122.873 154.534 122.65 154.577 122.438C154.619 122.226 154.874 122.035 155.022 121.834C156.304 124.176 157.576 126.518 158.858 128.849C162.811 136.077 166.912 143.494 173.312 148.676C175.108 150.237 177.235 151.368 179.533 151.983C184.492 153.042 189.42 150.425 193.807 147.85C193.256 144.798 194.03 139.224 196.711 139.446C196.943 139.641 197.153 139.862 197.336 140.103C198.032 141.047 198.499 142.139 198.702 143.294C198.904 144.449 198.835 145.635 198.502 146.758V146.758Z" fill="url(#paint10_linear_1_3)"/>
<path d="M160.246 140.707C159.303 143.484 158.413 146.292 157.427 149.079C155.626 154.155 153.708 158.712 153.475 164.265C153.369 166.776 153.475 169.383 152.574 171.683C151.961 173.127 151.072 174.437 149.957 175.54V175.54C149.857 175.596 149.75 175.635 149.639 175.656C149.482 175.705 149.317 175.72 149.155 175.703C148.992 175.685 148.834 175.635 148.692 175.555C148.549 175.474 148.424 175.366 148.324 175.236C148.225 175.106 148.153 174.957 148.113 174.798C145.626 176.364 142.621 176.886 139.752 176.25C139.466 174.173 139.629 172.059 140.228 170.051C140.967 168.502 141.877 167.041 142.941 165.695C144.528 163.14 145.835 160.423 146.841 157.589C147.625 155.596 148.409 153.35 147.456 151.4C148.929 151.209 150.402 150.965 151.864 150.647C152.267 150.599 152.653 150.454 152.987 150.224C153.448 149.742 153.719 149.109 153.75 148.443C154.164 145.879 154.513 143.314 154.81 140.729C154.948 139.425 154.566 135.525 156.06 135.049C157.777 134.551 159.335 137.783 160.246 140.707Z" fill="url(#paint11_linear_1_3)"/>
<path d="M230.303 130.513L224.538 138.355C224.538 138.355 223.786 139.415 225.418 138.832C227.05 138.249 232.359 128.955 232.359 128.955C233.419 127.037 234.733 125.225 235.824 123.307C236.057 122.904 236.269 122.491 236.481 122.067C236.516 121.97 236.579 121.886 236.661 121.824C236.749 121.804 236.839 121.804 236.926 121.824C237.266 121.824 237.605 121.824 237.933 121.824C238.226 121.845 238.52 121.845 238.813 121.824C239.15 121.774 239.472 121.651 239.756 121.463C240.762 120.713 241.504 119.663 241.875 118.464C242.16 117.932 242.253 117.319 242.14 116.726C241.814 116.992 241.544 117.32 241.345 117.691C240.996 118.207 240.595 118.687 240.148 119.121C240.064 119.222 239.961 119.304 239.844 119.362C239.728 119.42 239.6 119.454 239.47 119.46C239.407 119.454 239.348 119.428 239.3 119.386C239.215 119.291 239.3 119.142 239.3 119.015L240.731 115.497C240.82 115.332 240.842 115.138 240.794 114.957C240.599 114.979 240.411 115.04 240.24 115.137C240.068 115.233 239.918 115.363 239.798 115.518C239.555 115.823 239.352 116.158 239.194 116.514C238.822 117.323 238.36 118.087 237.817 118.793C237.779 118.858 237.718 118.907 237.647 118.931C237.597 118.936 237.547 118.924 237.505 118.897C237.462 118.87 237.43 118.83 237.414 118.782C237.387 118.689 237.387 118.59 237.414 118.496C237.583 117.193 238.781 116.186 238.866 114.882C238.371 115.017 237.942 115.325 237.658 115.751C237.38 116.177 237.142 116.628 236.948 117.097C236.675 117.693 236.363 118.27 236.015 118.825C235.797 119.137 235.619 119.475 235.485 119.831C235.427 120.005 235.407 120.19 235.425 120.372C235.443 120.555 235.5 120.732 235.591 120.891C235.615 120.923 235.633 120.959 235.644 120.997C235.655 121.035 235.655 121.075 235.644 121.114L234.743 122.565C234.489 122.968 234.214 123.328 233.938 123.699C233.752 124.006 233.592 124.329 233.461 124.664C233.048 125.48 232.635 126.295 232.211 127.101L230.462 130.418L230.303 130.513Z" fill="white"/>
<path d="M234.584 112.805C234.438 112.94 234.319 113.102 234.235 113.282C234.171 113.504 234.171 113.739 234.235 113.961C234.441 114.48 234.777 114.939 235.211 115.291C235.646 115.644 236.163 115.879 236.714 115.974C237.796 116.163 238.859 116.443 239.894 116.811C240.816 117.256 241.674 118.04 242.691 117.956C243.019 117.903 243.332 117.781 243.61 117.598C243.888 117.416 244.124 117.176 244.302 116.896C244.65 116.34 244.924 115.742 245.118 115.116C245.164 115.033 245.194 114.942 245.204 114.848C245.215 114.754 245.207 114.659 245.18 114.568C245.154 114.477 245.109 114.392 245.049 114.319C244.989 114.246 244.915 114.185 244.832 114.141C243.128 112.865 241.197 111.926 239.141 111.375C237.308 110.856 235.994 111.396 234.584 112.805Z" fill="#5D2E33"/>
<path d="M236.036 112.996C236.393 113.33 236.815 113.586 237.276 113.749C238.454 114.193 239.682 114.492 240.932 114.639C241.205 114.666 241.475 114.719 241.737 114.798C242.235 115.028 242.693 115.335 243.094 115.709C243.504 116.08 244.035 116.291 244.588 116.302C244.59 116.58 244.527 116.854 244.404 117.102C244.28 117.351 244.1 117.567 243.878 117.733C243.488 117.965 243.046 118.095 242.592 118.112C242.138 118.128 241.688 118.031 241.282 117.828C240.445 117.489 239.692 116.959 238.834 116.663C237.658 116.26 236.354 116.324 235.199 115.879C234.945 115.785 234.708 115.649 234.5 115.476C234.209 115.216 234.001 114.877 233.901 114.5C233.801 114.124 233.814 113.726 233.938 113.356C234.106 112.781 234.484 112.289 234.998 111.979C235.665 111.672 235.697 112.636 236.036 112.996Z" fill="url(#paint12_linear_1_3)"/>
<path d="M234.139 234.661C232.02 234.343 230.06 235.72 228.057 236.462C226.966 236.87 225.837 237.168 224.687 237.352C223.627 237.554 222.726 237.787 221.773 237.066C221.203 236.576 220.742 235.974 220.416 235.297C220.392 235.22 220.349 235.151 220.291 235.097C220.232 235.042 220.161 235.003 220.083 234.984C220.005 234.965 219.924 234.966 219.847 234.987C219.77 235.009 219.699 235.049 219.643 235.106C218.602 235.753 217.601 236.461 216.644 237.225C214.901 238.277 213.233 239.449 211.652 240.733C211.141 241.249 210.66 241.794 210.211 242.365C209.628 243.075 208.749 244.24 209.978 244.728C212.67 245.807 215.678 245.78 218.35 244.654C219.621 244.103 220.777 243.329 222.006 242.715C222.957 242.234 223.955 241.851 224.984 241.57C225.54 241.358 226.155 241.358 226.711 241.57C227.771 242.1 227.622 243.626 227.315 244.749C227.177 245.279 229.964 244.442 230.197 244.251C230.896 243.519 231.475 242.683 231.914 241.771C233.429 239.716 234.212 237.213 234.139 234.661V234.661Z" fill="#68E1FD"/>
<path d="M231.925 241.793C231.475 242.7 230.893 243.536 230.197 244.272C229.919 244.409 229.628 244.519 229.328 244.601C228.449 244.866 227.209 245.131 227.315 244.77C227.622 243.636 227.76 242.1 226.711 241.591C226.151 241.38 225.533 241.38 224.973 241.591C223.95 241.875 222.957 242.254 222.006 242.725C220.777 243.35 219.621 244.124 218.35 244.675C215.674 245.801 212.663 245.827 209.968 244.749C208.749 244.262 209.628 243.096 210.211 242.386V242.312C210.646 241.768 211.109 241.248 211.599 240.754C213.177 239.467 214.845 238.295 216.591 237.246C217.548 236.482 218.549 235.774 219.59 235.127C219.664 235.074 219.749 235.037 219.839 235.021C219.928 235.004 220.021 235.008 220.109 235.032C220.22 235.1 220.308 235.2 220.363 235.318C220.687 235.993 221.145 236.595 221.709 237.087C222.673 237.808 223.553 237.575 224.634 237.374C225.783 237.184 226.911 236.886 228.004 236.483C230.007 235.71 231.967 234.364 234.086 234.682C234.168 237.225 233.408 239.725 231.925 241.793Z" fill="url(#paint13_linear_1_3)"/>
<path d="M230.78 240.648C230.597 242.057 230.101 243.408 229.328 244.601C228.449 244.866 227.209 245.131 227.315 244.77C227.622 243.636 227.76 242.1 226.711 241.591C226.151 241.38 225.533 241.38 224.973 241.591C223.95 241.875 222.957 242.254 222.006 242.725C220.777 243.35 219.621 244.124 218.35 244.675C215.674 245.8 212.663 245.827 209.968 244.749C208.749 244.262 209.628 243.096 210.211 242.386V242.312C210.603 242.418 210.995 242.524 211.388 242.598C212.235 242.732 213.096 242.771 213.952 242.714C215.401 242.661 216.84 242.452 218.244 242.089C219.568 241.74 220.84 241.242 222.144 240.818C224.528 239.984 227.036 239.561 229.561 239.567C229.757 239.55 229.954 239.578 230.137 239.647C230.321 239.717 230.486 239.827 230.621 239.97C230.745 240.173 230.801 240.411 230.78 240.648Z" fill="url(#paint14_linear_1_3)"/>
<path d="M158 194C163.68 185.596 162.122 174.48 163.584 164.445C163.902 162.325 164.644 159.814 166.657 159.019C167.423 158.769 168.227 158.662 169.031 158.701L244.662 157.642C246.782 157.642 248.901 157.642 250.681 158.701C254.242 160.821 254.369 165.822 256.075 169.595L248.657 162.325C247.598 163.979 247.598 166.087 247.682 168.058C247.919 172.986 248.453 177.894 249.283 182.756C249.626 185.288 250.34 187.755 251.402 190.079C252.483 192.421 254.416 194.262 256.806 195.229C254.92 196.325 252.767 196.875 250.586 196.819C249.649 196.837 248.726 196.587 247.926 196.098C247.298 195.587 246.783 194.952 246.411 194.233C242.688 188.016 239.984 181.244 238.399 174.173C238.12 172.478 237.625 170.825 236.926 169.256C236.57 168.477 236.044 167.788 235.388 167.238C234.732 166.689 233.961 166.292 233.133 166.077C232.128 165.951 231.108 166.102 230.183 166.515C229.258 166.928 228.464 167.586 227.887 168.419C226.773 170.103 226.049 172.014 225.768 174.014C225.002 177.79 224.647 181.638 224.708 185.491C224.782 189.475 225.301 193.523 224.443 197.423C223.108 203.484 218.668 208.317 215.902 213.88C220.409 198.702 221.017 182.633 217.672 167.158C217.681 166.746 217.599 166.338 217.431 165.961C217.264 165.585 217.015 165.251 216.703 164.983C216.391 164.714 216.023 164.518 215.626 164.409C215.23 164.299 214.813 164.279 214.408 164.349L184.619 163.48C181.377 163.385 177.89 163.353 175.188 165.155C172.242 167.126 170.949 170.761 169.89 174.13L165.396 188.256C164.992 189.293 164.79 190.397 164.803 191.51C164.971 192.757 165.464 193.937 166.234 194.932C169.264 199.289 173.877 202.29 179.088 203.294C180.132 203.55 181.223 203.55 182.267 203.294C184.768 202.531 185.859 199.659 186.612 197.158L186.76 204.014C186.861 204.752 186.7 205.502 186.304 206.134C185.898 206.558 185.36 206.834 184.778 206.918C181.44 207.649 178.049 206.282 174.764 205.318C169.148 203.664 163.733 203.59 157.957 203.813C155.838 203.898 154.778 202.753 154.778 200.517C154.693 197.984 156.675 195.971 158 194Z" fill="url(#paint15_linear_1_3)"/>
<path d="M250.819 103.65C251.932 103.491 253.055 103.416 254.178 103.427C254.113 104.774 253.585 106.058 252.684 107.062C252.587 107.195 252.464 107.307 252.321 107.391C252.179 107.475 252.021 107.529 251.858 107.549C251.677 107.52 251.505 107.449 251.356 107.343C251.207 107.236 251.085 107.096 250.999 106.935C250.414 106.091 250.08 105.099 250.035 104.073C250.014 104.015 250.014 103.952 250.035 103.893C250.088 103.829 250.164 103.787 250.247 103.777L251.519 103.438" fill="white"/>
<path d="M177.901 98.0756C177.83 98.7815 177.848 99.4935 177.954 100.195C177.954 100.587 178.145 101.032 178.516 101.17C178.655 101.213 178.804 101.216 178.946 101.181C179.088 101.146 179.218 101.072 179.321 100.969C179.525 100.761 179.687 100.517 179.798 100.248C180.052 99.7499 180.858 98.6372 180.37 98.1286C179.569 97.8736 178.712 97.8552 177.901 98.0756V98.0756Z" fill="white"/>
<path d="M233.27 154.303H189.876V157.514H233.27V154.303Z" fill="white"/>
<path d="M197.834 150.383C197.9 150.004 198.044 149.643 198.258 149.323C198.503 149.027 198.821 148.801 199.18 148.666C200.453 148.186 201.826 148.03 203.175 148.21C203.43 148.251 203.691 148.233 203.938 148.157C204.165 148.052 204.37 147.904 204.542 147.723C205.545 146.947 206.753 146.483 208.018 146.387C209.258 146.25 210.529 146.324 211.78 146.271C213.899 146.186 216.018 145.762 218.138 145.635C220.26 145.405 222.403 145.799 224.305 146.769C225.301 147.352 226.149 148.168 227.177 148.698C228.139 149.154 229.171 149.444 230.229 149.556C230.388 149.556 230.542 149.613 230.664 149.715C230.763 149.849 230.808 150.015 230.791 150.181V151.93C230.84 152.408 230.775 152.891 230.6 153.339C230.373 153.679 230.072 153.963 229.72 154.171C229.367 154.378 228.973 154.503 228.565 154.537C226.95 154.828 225.311 154.967 223.67 154.95C215.414 155.13 207.117 154.95 198.872 154.42C198.141 154.367 197.601 154.282 197.463 153.466C197.391 152.424 197.517 151.378 197.834 150.383Z" fill="#5D2E33"/>
<path d="M210.805 151.506C208.737 151.438 206.678 151.204 204.648 150.806C202.592 150.361 200.473 149.62 198.427 150.107C198.22 150.142 198.029 150.238 197.876 150.383C197.805 150.473 197.752 150.577 197.721 150.688C197.69 150.799 197.682 150.915 197.696 151.029C197.77 152.619 199.54 153.53 201.087 153.933C204.042 154.604 207.064 154.938 210.095 154.929C215.744 155.191 221.404 155.155 227.05 154.823C228.788 154.696 229.455 153.233 227.749 152.142C226.849 151.569 225.545 151.856 224.57 151.856C223.129 151.856 221.688 151.856 220.257 151.856C217.057 151.792 213.931 151.686 210.805 151.506Z" fill="url(#paint16_linear_1_3)"/>
<path d="M189.589 110.728C189.518 111.822 189.842 112.905 190.501 113.78C191.023 114.366 191.737 114.746 192.514 114.851C193.292 114.956 194.081 114.779 194.74 114.353C196.721 112.996 196.774 109.743 198.883 108.598C199.71 108.143 200.896 107.952 201.119 107.03C201.178 106.72 201.144 106.4 201.024 106.108C200.816 105.58 200.498 105.102 200.09 104.708C199.682 104.313 199.195 104.01 198.661 103.819C194.051 102.081 189.685 106.161 189.589 110.728Z" fill="#E4A98A"/>
<path d="M208.134 134.858C207.443 134.694 206.802 134.363 206.268 133.894C205.734 133.424 205.323 132.831 205.072 132.166C204.587 130.83 204.375 129.41 204.446 127.991C204.432 127.831 204.461 127.669 204.531 127.525C204.623 127.417 204.739 127.332 204.87 127.277C205 127.222 205.142 127.198 205.284 127.207C208.081 126.963 210.9 126.836 213.708 126.815C213.708 128.065 214.1 129.57 214.1 130.82C214.174 131.786 214.032 132.756 213.687 133.66C213.502 134.109 213.177 134.485 212.761 134.733C212.345 134.981 211.859 135.088 211.377 135.038L211.176 139.595C211.104 140.049 211.182 140.514 211.398 140.919C211.722 141.276 212.125 141.552 212.574 141.725C212.998 141.968 213.401 142.403 213.284 142.869C213.168 143.336 212.511 143.547 211.981 143.6C210.254 143.781 208.526 143.887 206.788 143.908C206.693 143.251 207.308 142.721 207.848 142.392C208.389 142.064 209.088 141.725 209.258 141.078C209.321 140.785 209.321 140.482 209.258 140.188C208.982 138.503 208.41 136.543 208.134 134.858Z" fill="white"/>
<path d="M199.031 136.077C200.441 133.268 202.38 130.344 205.39 129.581C205.48 129.973 205.484 130.38 205.4 130.774C205.315 131.168 205.146 131.538 204.902 131.859C204.408 132.513 203.995 133.225 203.673 133.978C203.609 134.16 203.609 134.358 203.673 134.54C203.8 134.858 204.192 134.953 204.531 134.985C206.621 135.197 208.732 134.955 210.72 134.275C212.069 133.711 213.449 133.222 214.853 132.813C215.077 132.744 215.317 132.744 215.542 132.813C215.658 132.878 215.759 132.968 215.837 133.076C215.916 133.184 215.97 133.307 215.997 133.438C216.368 134.731 215.414 135.992 214.535 136.998C211.547 140.411 208.177 144.024 203.758 144.84C202.698 145.052 201.49 145.052 200.377 145.275C199.384 145.597 198.414 145.987 197.474 146.44C196.329 146.833 195.715 146.504 195.481 145.296C194.899 142.117 197.728 138.662 199.031 136.077Z" fill="#E4A98A"/>
<path d="M213.645 131.096C213.835 131.149 214.058 131.234 214.079 131.424C214.075 131.506 214.053 131.585 214.016 131.658C213.525 132.693 212.729 133.554 211.734 134.122C210.739 134.691 209.593 134.94 208.452 134.837C208.121 134.808 207.8 134.711 207.509 134.551C207.24 134.373 207.006 134.147 206.82 133.883C206.089 132.897 204.701 129.867 207.181 130.174C208.24 130.301 209.183 130.693 210.254 130.778C211.391 130.788 212.525 130.894 213.645 131.096V131.096Z" fill="#984C5D"/>
</g>
<defs>
<linearGradient id="paint0_linear_1_3" x1="160.119" y1="124.769" x2="197.06" y2="107.009" gradientUnits="userSpaceOnUse">
<stop offset="0.01"/>
<stop offset="0.13" stop-opacity="0.69"/>
<stop offset="1" stop-opacity="0"/>
</linearGradient>
<linearGradient id="paint1_linear_1_3" x1="5508.81" y1="4646.44" x2="6255.12" y2="4646.44" gradientUnits="userSpaceOnUse">
<stop offset="0.01"/>
<stop offset="0.13" stop-opacity="0.69"/>
<stop offset="1" stop-opacity="0"/>
</linearGradient>
<linearGradient id="paint2_linear_1_3" x1="-81700.7" y1="13091.4" x2="-85810.3" y2="13091.4" gradientUnits="userSpaceOnUse">
<stop offset="0.01"/>
<stop offset="0.13" stop-opacity="0.69"/>
<stop offset="1" stop-opacity="0"/>
</linearGradient>
<linearGradient id="paint3_linear_1_3" x1="-56030.2" y1="9928.71" x2="-57953.2" y2="9928.71" gradientUnits="userSpaceOnUse">
<stop offset="0.01"/>
<stop offset="0.13" stop-opacity="0.69"/>
<stop offset="1" stop-opacity="0"/>
</linearGradient>
<linearGradient id="paint4_linear_1_3" x1="10403.6" y1="14320.1" x2="11988.7" y2="14320.1" gradientUnits="userSpaceOnUse">
<stop offset="0.01"/>
<stop offset="0.13" stop-opacity="0.69"/>
<stop offset="1" stop-opacity="0"/>
</linearGradient>
<linearGradient id="paint5_linear_1_3" x1="7298.54" y1="13091.4" x2="11408.2" y2="13091.4" gradientUnits="userSpaceOnUse">
<stop offset="0.01"/>
<stop offset="0.13" stop-opacity="0.69"/>
<stop offset="1" stop-opacity="0"/>
</linearGradient>
<linearGradient id="paint6_linear_1_3" x1="5636.78" y1="9928.7" x2="7559.33" y2="9928.7" gradientUnits="userSpaceOnUse">
<stop offset="0.01"/>
<stop offset="0.13" stop-opacity="0.69"/>
<stop offset="1" stop-opacity="0"/>
</linearGradient>
<linearGradient id="paint7_linear_1_3" x1="8634.62" y1="16015.5" x2="12151.9" y2="16015.5" gradientUnits="userSpaceOnUse">
<stop offset="0.01"/>
<stop offset="0.13" stop-opacity="0.69"/>
<stop offset="1" stop-opacity="0"/>
</linearGradient>
<linearGradient id="paint8_linear_1_3" x1="8062.28" y1="14280.9" x2="5381.53" y2="13752.1" gradientUnits="userSpaceOnUse">
<stop offset="0.01"/>
<stop offset="0.13" stop-opacity="0.69"/>
<stop offset="1" stop-opacity="0"/>
</linearGradient>
<linearGradient id="paint9_linear_1_3" x1="9015.28" y1="5312.38" x2="7613.84" y2="7990.56" gradientUnits="userSpaceOnUse">
<stop offset="0.01"/>
<stop offset="0.13" stop-opacity="0.69"/>
<stop offset="1" stop-opacity="0"/>
</linearGradient>
<linearGradient id="paint10_linear_1_3" x1="7328.28" y1="5992.65" x2="9202.08" y2="5992.65" gradientUnits="userSpaceOnUse">
<stop offset="0.01"/>
<stop offset="0.13" stop-opacity="0.69"/>
<stop offset="1" stop-opacity="0"/>
</linearGradient>
<linearGradient id="paint11_linear_1_3" x1="3177.99" y1="7503" x2="3579.26" y2="7503" gradientUnits="userSpaceOnUse">
<stop offset="0.01"/>
<stop offset="0.13" stop-opacity="0.69"/>
<stop offset="1" stop-opacity="0"/>
</linearGradient>
<linearGradient id="paint12_linear_1_3" x1="2773.49" y1="972.862" x2="2882.53" y2="972.862" gradientUnits="userSpaceOnUse">
<stop offset="0.01"/>
<stop offset="0.13" stop-opacity="0.69"/>
<stop offset="1" stop-opacity="0"/>
</linearGradient>
<linearGradient id="paint13_linear_1_3" x1="5702.23" y1="3239.5" x2="5726.08" y2="2866.59" gradientUnits="userSpaceOnUse">
<stop offset="0.01"/>
<stop offset="0.13" stop-opacity="0.69"/>
<stop offset="1" stop-opacity="0"/>
</linearGradient>
<linearGradient id="paint14_linear_1_3" x1="4775.06" y1="1789.46" x2="5208.58" y2="1789.46" gradientUnits="userSpaceOnUse">
<stop offset="0.01"/>
<stop offset="0.13" stop-opacity="0.69"/>
<stop offset="1" stop-opacity="0"/>
</linearGradient>
<linearGradient id="paint15_linear_1_3" x1="21289.5" y1="5239.91" x2="21361.1" y2="11773.2" gradientUnits="userSpaceOnUse">
<stop offset="0.01"/>
<stop offset="0.13" stop-opacity="0.69"/>
<stop offset="1" stop-opacity="0"/>
</linearGradient>
<linearGradient id="paint16_linear_1_3" x1="6471.94" y1="1048.83" x2="7381.12" y2="1048.83" gradientUnits="userSpaceOnUse">
<stop offset="0.01"/>
<stop offset="0.13" stop-opacity="0.69"/>
<stop offset="1" stop-opacity="0"/>
</linearGradient>
<clipPath id="clip0_1_3">
<rect width="406" height="306" fill="white"/>
</clipPath>
</defs>
</svg>
