<svg width="110" height="83" viewBox="0 0 110 83" fill="none" xmlns="http://www.w3.org/2000/svg">
<path d="M80.806 41.5C80.8096 44.8939 80.1446 48.2551 78.849 51.3914C77.5535 54.5276 75.6528 57.3773 73.2558 59.7772C70.8588 62.1772 68.0126 64.0803 64.88 65.3777C61.7474 66.675 58.39 67.3411 55 67.3379C54.4307 67.3379 53.8615 67.3186 53.3005 67.2801C48.2788 66.9499 43.463 65.1571 39.4459 62.1224C35.4287 59.0876 32.3855 54.9433 30.6906 50.1994C28.9958 45.4555 28.7233 40.319 29.9067 35.4221C31.09 30.5251 33.6777 26.0814 37.3511 22.6377C41.0245 19.194 45.6235 16.9006 50.582 16.0398C55.5406 15.1789 60.6423 15.7882 65.2594 17.7926C69.8766 19.797 73.8076 23.1091 76.5688 27.3212C79.33 31.5334 80.8009 36.4618 80.8005 41.5H80.806Z" fill="#093F68"/>
<path d="M55 67.6142C54.4253 67.6142 53.845 67.5922 53.2813 67.5537C46.4902 67.0884 40.1539 63.97 35.6382 58.8709C31.1225 53.7718 28.7892 47.1003 29.1414 40.2949C29.4935 33.4894 32.5029 27.095 37.5208 22.4904C42.5386 17.8857 49.1629 15.4395 55.9656 15.6793C62.7683 15.919 69.2044 18.8254 73.8864 23.7719C78.5684 28.7184 81.1213 35.3088 80.9946 42.1221C80.8679 48.9355 78.0719 55.4262 73.2092 60.1949C68.3466 64.9635 61.8069 67.6281 55 67.6142V67.6142ZM55 15.9385C48.3795 15.947 42.0212 18.5296 37.2663 23.1414C32.5113 27.7532 29.7315 34.0337 29.5132 40.6581C29.2948 47.2824 31.6551 53.7327 36.0961 58.6482C40.537 63.5638 46.7115 66.5603 53.317 67.0058C53.867 67.0443 54.439 67.0636 55 67.0636C61.772 67.0636 68.2666 64.3704 73.0551 59.5765C77.8436 54.7826 80.5338 48.2806 80.5338 41.501C80.5338 34.7214 77.8436 28.2195 73.0551 23.4256C68.2666 18.6316 61.772 15.9385 55 15.9385V15.9385Z" fill="#093F68"/>
<path d="M80.5282 45.3048C79.6192 51.4309 76.5408 57.0258 71.8545 61.069C67.1683 65.1121 61.1864 67.3341 55 67.3296C54.4307 67.3296 53.8615 67.3104 53.3005 67.2718C51.3697 65.5487 49.8381 63.4243 48.8125 61.047C48.2538 59.7447 47.8548 58.3792 47.6245 56.9807C47.4652 56.0152 47.3852 55.0382 47.3852 54.0597C47.3839 50.2563 48.6037 46.5531 50.8647 43.4966C53.1258 40.4402 56.3082 38.1922 59.9426 37.0843C63.577 35.9765 67.4708 36.0675 71.0496 37.3439C74.6284 38.6203 77.7026 41.0145 79.8187 44.1733C80.0717 44.5385 80.3082 44.9157 80.5282 45.3048Z" fill="#68E1FD"/>
<path d="M55 67.6132C54.4253 67.6132 53.845 67.5912 53.2813 67.5526C53.2201 67.5487 53.1621 67.5245 53.1163 67.4838C51.1572 65.7284 49.6024 63.5679 48.5595 61.1517C47.9914 59.8292 47.5861 58.4425 47.3523 57.022C46.7784 53.5841 47.213 50.0533 48.6031 46.8576C49.9933 43.6619 52.2795 40.9384 55.1846 39.0173C58.0897 37.0961 61.489 36.0598 64.9706 36.0338C68.4522 36.0078 71.8666 36.9932 74.8 38.8708C76.8834 40.2017 78.6682 41.951 80.0415 44.0081C80.3 44.388 80.542 44.779 80.762 45.1699C80.7923 45.2233 80.8039 45.2853 80.795 45.3461C79.8775 51.5378 76.7676 57.193 72.0325 61.2805C67.2973 65.3681 61.2524 67.6156 55 67.6132ZM53.4133 67.0103C53.9358 67.0433 54.4693 67.0626 55 67.0626C61.1047 67.0621 67.0073 64.8723 71.638 60.8898C76.2687 56.9074 79.3212 51.396 80.2423 45.3544C80.0415 45.0047 79.8243 44.6551 79.5905 44.3137C77.5073 41.2039 74.4809 38.8468 70.9577 37.5902C67.4344 36.3335 63.6011 36.2439 60.0231 37.3344C56.4451 38.425 53.312 40.638 51.086 43.647C48.86 46.656 47.6591 50.3016 47.6603 54.0459C47.6596 55.0088 47.7378 55.9701 47.894 56.9201C48.1214 58.297 48.5148 59.6411 49.0655 60.9232C50.0627 63.2404 51.5454 65.3163 53.4133 67.0103Z" fill="#093F68"/>
<path d="M74.4233 42.5572C73.5598 44.8891 71.6733 45.1506 69.6548 43.8869C68.7885 43.3363 67.848 42.6728 66.8388 42.86C65.6618 43.083 65.0155 44.3742 64.7818 45.5526C64.6003 46.4528 64.3638 47.5954 63.4645 47.7743C63.1607 47.8005 62.8553 47.8005 62.5515 47.7743C61.3113 47.8129 60.522 49.1509 60.3515 50.3953C60.1535 51.948 60.5798 53.1484 59.2515 54.2744C59.0348 54.4766 58.7765 54.6289 58.4949 54.7207C58.2132 54.8125 57.9148 54.8415 57.6207 54.8058C57.3015 54.7419 57.0103 54.5796 56.7879 54.3416C56.5654 54.1036 56.423 53.8019 56.3805 53.4788C56.3255 52.9694 56.529 52.4656 56.5207 51.9535C56.5207 51.2405 56.056 50.4091 55.9267 49.6795C55.8442 49.2004 55.341 48.8838 54.857 48.8536C54.3683 48.851 53.8853 48.9583 53.4435 49.1674L50.5587 50.2686C50.0637 50.4586 49.423 50.6155 49.0737 50.2163C48.8919 49.9478 48.821 49.6193 48.8757 49.2996C49.3075 41.4092 57.7775 36.3159 65.0815 36.3159C68.4682 36.3106 71.7848 37.2817 74.635 39.1131C74.8882 40.2583 74.8149 41.4517 74.4233 42.5572V42.5572Z" fill="#70CC40"/>
<path d="M57.9122 55.0976C57.8053 55.0981 57.6985 55.0889 57.5932 55.07C57.2151 54.9977 56.8697 54.807 56.6068 54.5255C56.3438 54.2439 56.177 53.8861 56.1302 53.5035C56.1084 53.1962 56.1315 52.8873 56.199 52.5867C56.24 52.378 56.263 52.1662 56.2677 51.9535C56.229 51.5296 56.127 51.1138 55.9652 50.7201C55.8487 50.3944 55.7568 50.0603 55.6902 49.7208C55.627 49.3629 55.22 49.1426 54.8652 49.1151C54.4173 49.1212 53.9758 49.2225 53.57 49.4124L50.688 50.5137C50.3745 50.632 49.4285 50.9927 48.8977 50.3843C48.7803 50.226 48.6956 50.0458 48.6484 49.8544C48.6011 49.663 48.5924 49.4641 48.6227 49.2693C49.0572 41.3486 57.4942 36.0268 65.1035 36.0268C68.5412 36.0246 71.907 37.0118 74.8 38.8708C74.8306 38.8903 74.857 38.9156 74.8778 38.9454C74.8986 38.9752 74.9132 39.0088 74.921 39.0442C75.181 40.2464 75.0961 41.4976 74.6762 42.6536V42.6536C74.2692 43.7548 73.6065 44.4844 72.7512 44.7707C71.8107 45.0928 70.6832 44.867 69.4952 44.1182L69.3 43.9778C68.5162 43.4795 67.7077 42.9674 66.8855 43.1216C65.5875 43.3639 65.1502 45.0763 65.0457 45.5994C64.856 46.5354 64.6002 47.8184 63.5112 48.0359C63.3005 48.0646 63.0868 48.0646 62.876 48.0359C62.7688 48.0304 62.6614 48.0304 62.5542 48.0359C61.4982 48.0689 60.775 49.2858 60.6292 50.4146C60.5854 50.7865 60.5625 51.1606 60.5605 51.5351C60.5357 52.573 60.511 53.5503 59.444 54.4671C59.0245 54.8529 58.4815 55.0764 57.9122 55.0976V55.0976ZM54.747 48.5617C54.7974 48.559 54.8479 48.559 54.8982 48.5617C55.4702 48.6058 56.1082 48.9829 56.221 49.6217C56.2888 49.933 56.3808 50.2386 56.496 50.5357C56.6778 50.9838 56.7891 51.4575 56.826 51.9398C56.8232 52.1867 56.7974 52.4327 56.749 52.6748C56.6921 52.9248 56.6708 53.1815 56.6857 53.4375C56.7206 53.7013 56.8368 53.9476 57.0182 54.1421C57.1997 54.3365 57.4372 54.4694 57.6977 54.5222C57.9518 54.5505 58.2091 54.5233 58.4517 54.4425C58.6943 54.3617 58.9165 54.2292 59.103 54.0542C59.983 53.297 60.0022 52.5124 60.027 51.5241C60.0303 51.1312 60.0542 50.7388 60.0985 50.3485C60.2772 48.9719 61.1765 47.5293 62.5515 47.488C62.6782 47.4865 62.8049 47.492 62.931 47.5045C63.0926 47.5253 63.2562 47.5253 63.4177 47.5045C64.0915 47.3696 64.3142 46.5162 64.5177 45.4975C64.8395 43.8842 65.692 42.7967 66.7947 42.5902C67.8287 42.3948 68.772 42.9949 69.6052 43.5235L69.8087 43.6529C70.851 44.3082 71.8135 44.5146 72.5945 44.2504C73.2875 44.0136 73.8182 43.4244 74.1702 42.4608C74.5431 41.4409 74.6287 40.3381 74.4177 39.2727C71.6326 37.5098 68.4041 36.576 65.109 36.5802C57.7527 36.5802 49.5935 41.6927 49.1782 49.3023C49.1328 49.5505 49.1787 49.8067 49.3075 50.0236C49.4945 50.2384 49.8905 50.2301 50.4872 50.0016L53.372 48.9003C53.8057 48.7041 54.2718 48.5893 54.747 48.5617V48.5617Z" fill="#093F68"/>
<path d="M65.9835 64.9014C62.548 66.5203 58.797 67.3571 55 67.3516C54.4307 67.3516 53.8615 67.3324 53.3005 67.2938C51.3671 65.5643 49.8353 63.4322 48.8125 61.047C49.4231 60.5333 50.167 60.2039 50.9575 60.0972C54.131 59.5906 53.944 62.3795 55.968 63.6763C56.771 64.1938 57.8187 63.7974 58.7345 63.5221C60.439 62.9757 62.2762 63.0096 63.9595 63.6184C64.7087 63.915 65.3953 64.3502 65.9835 64.9014Z" fill="#70CC40"/>
<path d="M55 67.6132C54.4252 67.6132 53.845 67.5912 53.2812 67.5526C53.2201 67.5487 53.1621 67.5245 53.1162 67.4838C51.1571 65.7284 49.6024 63.5679 48.5595 61.1517C48.5364 61.0981 48.5308 61.0386 48.5437 60.9817C48.5565 60.9248 48.5871 60.8734 48.631 60.8351C49.2816 60.2893 50.0727 59.9381 50.9135 59.8219C53.1135 59.4723 53.8587 60.6231 54.5902 61.7353C55 62.3575 55.4152 63.0045 56.1192 63.4505C56.7435 63.8525 57.5932 63.5909 58.4127 63.3376L58.6575 63.2633C60.417 62.7005 62.3132 62.7363 64.0502 63.3652C64.8334 63.6713 65.5525 64.1214 66.1705 64.6922C66.2036 64.7227 66.2288 64.7609 66.2437 64.8035C66.2587 64.8461 66.2629 64.8916 66.2561 64.9362C66.2493 64.9808 66.2317 65.0231 66.2048 65.0592C66.1779 65.0954 66.1425 65.1244 66.1017 65.1437C62.6302 66.7817 58.8378 67.6253 55 67.6132V67.6132ZM53.4132 67.0103C53.9357 67.0433 54.4692 67.0626 55 67.0626C58.6144 67.071 62.1888 66.305 65.483 64.816C64.9908 64.4198 64.4408 64.1013 63.8522 63.8717C62.2288 63.2865 60.4577 63.2545 58.8142 63.7809L58.575 63.8552C57.6757 64.1305 56.65 64.4444 55.825 63.9048C55.0357 63.3954 54.5572 62.6686 54.1365 62.0299C53.4132 60.9287 52.844 60.0642 51.0042 60.356C50.3335 60.4503 49.6972 60.7116 49.1535 61.1159C50.1484 63.3559 51.5992 65.3635 53.4132 67.0103Z" fill="#093F68"/>
<path d="M80.5283 45.3048C79.5764 51.7337 76.2375 57.5666 71.1783 61.639C71.192 59.3594 70.0508 57.647 69.8968 55.3068C69.8253 54.1808 70.5788 53.1594 71.4615 52.4574C72.3443 51.7553 73.3865 51.2653 74.239 50.5302C76.406 48.6719 77.319 45.3709 79.827 44.1485C80.0745 44.5303 80.3083 44.9157 80.5283 45.3048Z" fill="#70CC40"/>
<path d="M71.17 61.9143C71.129 61.914 71.0886 61.9046 71.0517 61.8867C71.0045 61.8642 70.9647 61.8287 70.9369 61.7843C70.9092 61.74 70.8946 61.6886 70.895 61.6362C70.895 60.4689 70.598 59.4613 70.2735 58.3931C69.9361 57.4025 69.7147 56.376 69.6135 55.3344C69.5475 54.2717 70.1635 53.1484 71.2827 52.2509C71.7068 51.9259 72.1484 51.6244 72.6055 51.3479C73.1105 51.0441 73.5939 50.7056 74.052 50.3347C74.9485 49.5666 75.6415 48.5177 76.3097 47.499C77.2365 46.0977 78.1935 44.6495 79.6978 43.92C79.7574 43.8907 79.8257 43.884 79.8899 43.9012C79.9541 43.9185 80.0099 43.9584 80.047 44.0136C80.3055 44.3935 80.5475 44.7845 80.7675 45.1754C80.7978 45.2288 80.8094 45.2908 80.8005 45.3516C79.8456 51.8561 76.4668 57.7577 71.3432 61.8702C71.292 61.9038 71.231 61.9193 71.17 61.9143ZM79.728 44.5284C78.4768 45.2249 77.6463 46.4831 76.769 47.8129C76.0788 48.859 75.3637 49.9438 74.4095 50.7614C73.9322 51.1504 73.4276 51.5046 72.8997 51.8214C72.4597 52.0891 72.0338 52.3795 71.6238 52.6914C71.159 53.063 70.0837 54.0679 70.1635 55.3068C70.261 56.3067 70.4752 57.2916 70.8015 58.2416C71.1154 59.1613 71.3248 60.1135 71.4258 61.0801C76.1824 57.0904 79.318 51.4975 80.2423 45.3543C80.0828 45.079 79.9095 44.8037 79.728 44.5284Z" fill="#093F68"/>
<path d="M49.2113 42.3012L42.735 35.8809L46.4503 34.1602L50.8943 38.5624L49.2113 42.3012Z" fill="#68E1FD"/>
<path d="M49.225 42.5765C49.1529 42.5762 49.0837 42.5475 49.0325 42.4966L42.5425 36.0764C42.5112 36.0452 42.4878 36.0069 42.4744 35.9647C42.461 35.9225 42.4579 35.8777 42.4655 35.8341C42.4728 35.7902 42.4906 35.7488 42.5175 35.7133C42.5443 35.6778 42.5793 35.6494 42.6195 35.6304L46.3375 33.9097C46.3883 33.8864 46.4451 33.8793 46.5001 33.8891C46.5551 33.8989 46.6058 33.9253 46.6455 33.9648L51.0867 38.3697C51.1266 38.4091 51.1535 38.4598 51.1638 38.5149C51.1741 38.57 51.1674 38.6269 51.1445 38.6781L49.4615 42.4168C49.4432 42.4572 49.4153 42.4926 49.3804 42.5199C49.3454 42.5472 49.3044 42.5657 49.2607 42.5737L49.225 42.5765ZM43.2245 35.969L49.137 41.8304L50.578 38.6285L46.409 34.4989L43.2245 35.969Z" fill="#093F68"/>
<path d="M65.78 26.3579L52.305 39.9803L45.0312 32.7699L58.5063 19.1475C58.5927 19.0644 58.6845 18.9872 58.7813 18.9163C60.4973 17.581 65.1998 16.6532 67.4878 16.265C67.6366 16.2384 67.7897 16.2479 67.9341 16.2927C68.0786 16.3376 68.2102 16.4164 68.3179 16.5226C68.4257 16.6289 68.5064 16.7594 68.5533 16.9033C68.6003 17.0473 68.6121 17.2003 68.5878 17.3498C68.2 19.6293 67.3255 24.3482 66 26.0826C65.9326 26.179 65.8591 26.271 65.78 26.3579V26.3579Z" fill="white"/>
<path d="M52.3105 40.2418C52.2743 40.242 52.2384 40.2351 52.2049 40.2214C52.1714 40.2077 52.1409 40.1875 52.1153 40.162L44.8415 32.9654C44.7907 32.9141 44.7621 32.8449 44.7618 32.7727C44.7615 32.7364 44.7685 32.7005 44.7822 32.667C44.7958 32.6334 44.816 32.6029 44.8415 32.5772L58.3165 18.9548C58.4076 18.8637 58.505 18.779 58.608 18.7015C60.3377 17.3525 64.8835 16.4247 67.4382 15.9925C67.6299 15.9597 67.8265 15.9732 68.0118 16.0319C68.1972 16.0905 68.3659 16.1926 68.5039 16.3297C68.6418 16.4668 68.7451 16.6348 68.8052 16.8199C68.8652 17.005 68.8802 17.2018 68.849 17.3938C68.442 19.957 67.5593 24.5161 66.2338 26.2588C66.1561 26.3609 66.0725 26.4583 65.9835 26.5506L52.5085 40.173C52.4542 40.2212 52.383 40.246 52.3105 40.2418ZM45.4355 32.7534L52.3105 39.5756L65.5875 26.1514C65.6605 26.0754 65.7294 25.9954 65.7938 25.9119C67.0918 24.205 67.9938 19.3045 68.3045 17.292C68.3213 17.1862 68.3127 17.0779 68.2794 16.9761C68.2461 16.8743 68.189 16.7819 68.113 16.7066C68.0369 16.6312 67.944 16.5751 67.842 16.5429C67.74 16.5106 67.6317 16.5031 67.5263 16.5211C65.5105 16.8625 60.6512 17.8013 58.9435 19.12C58.8608 19.1843 58.7818 19.2532 58.707 19.3265L45.4355 32.7534Z" fill="#093F68"/>
<path d="M42.4518 27.071L50.479 27.2554L45.0368 32.7616L40.8155 28.5604C40.7676 28.5128 40.7296 28.4562 40.7037 28.3938C40.6777 28.3314 40.6644 28.2646 40.6644 28.197C40.6644 28.1294 40.6777 28.0625 40.7037 28.0002C40.7296 27.9378 40.7676 27.8812 40.8155 27.8336L40.9943 27.6491C41.1858 27.4594 41.4136 27.3104 41.664 27.2111C41.9145 27.1117 42.1824 27.0641 42.4518 27.071V27.071Z" fill="#68E1FD"/>
<path d="M45.0368 33.0314C45.0006 33.0317 44.9647 33.0247 44.9312 33.011C44.8977 32.9973 44.8672 32.9771 44.8415 32.9516L40.623 28.7696C40.5493 28.6965 40.4909 28.6094 40.451 28.5135C40.4111 28.4175 40.3905 28.3147 40.3905 28.2108C40.3905 28.1069 40.4111 28.004 40.451 27.9081C40.4909 27.8121 40.5493 27.7251 40.623 27.6519L40.8017 27.4674C41.0191 27.2523 41.2768 27.0823 41.5599 26.967C41.843 26.8517 42.1461 26.7935 42.4517 26.7957L50.479 26.9801C50.5324 26.9815 50.5842 26.9983 50.6281 27.0286C50.6721 27.0589 50.7062 27.1014 50.7265 27.1508C50.747 27.2006 50.7524 27.2553 50.7421 27.3082C50.7319 27.361 50.7064 27.4097 50.6688 27.4482L45.2265 32.9544C45.2008 32.9799 45.1703 33.0001 45.1368 33.0138C45.1033 33.0275 45.0674 33.0344 45.0313 33.0342L45.0368 33.0314ZM42.4078 27.3463C42.1808 27.3467 41.9561 27.3919 41.7466 27.4793C41.5371 27.5667 41.3469 27.6946 41.1867 27.8556L41.008 28.0373C40.9632 28.0822 40.938 28.1431 40.938 28.2066C40.938 28.2701 40.9632 28.331 41.008 28.376L45.034 32.368L49.8328 27.5142L42.4463 27.3463H42.4078Z" fill="#093F68"/>
<path d="M58.025 42.4966L57.75 34.4631L52.3078 39.9693L56.529 44.1512C56.6258 44.2476 56.7568 44.3016 56.8934 44.3016C57.0299 44.3016 57.1609 44.2476 57.2577 44.1512L57.4392 43.9695C57.6321 43.777 57.7835 43.547 57.8842 43.2937C57.985 43.0404 58.0329 42.7691 58.025 42.4966V42.4966Z" fill="#68E1FD"/>
<path d="M56.892 44.5725C56.6857 44.572 56.488 44.4899 56.342 44.344L52.1207 40.162C52.095 40.1364 52.0745 40.106 52.0605 40.0724C52.0466 40.0389 52.0394 40.0029 52.0394 39.9665C52.0394 39.9302 52.0466 39.8942 52.0605 39.8606C52.0745 39.8271 52.095 39.7967 52.1207 39.7711L57.563 34.2648C57.6008 34.2263 57.6492 34.1997 57.702 34.1884C57.7548 34.1772 57.8097 34.1817 57.86 34.2015C57.9099 34.2214 57.9529 34.2554 57.9836 34.2995C58.0144 34.3435 58.0317 34.3956 58.0332 34.4493L58.3082 42.4829C58.3171 42.7908 58.2637 43.0973 58.1512 43.384C58.0387 43.6707 57.8695 43.9317 57.6537 44.1512L57.4722 44.3329C57.3972 44.4107 57.307 44.4722 57.2071 44.5134C57.1073 44.5546 57 44.5747 56.892 44.5725V44.5725ZM52.6982 39.9638L56.7242 43.953C56.7691 43.9979 56.8299 44.0231 56.8934 44.0231C56.9568 44.0231 57.0176 43.9979 57.0625 43.953L57.244 43.7686C57.4075 43.6024 57.5357 43.4047 57.6208 43.1875C57.7058 42.9703 57.7461 42.7381 57.739 42.5049V42.5049L57.497 35.1101L52.6982 39.9638Z" fill="#093F68"/>
<path d="M48.598 37.921L47.1102 36.448L53.6552 31.0878C53.6855 31.0567 53.7268 31.039 53.7702 31.0385C53.8135 31.038 53.8552 31.0547 53.8862 31.085C53.9172 31.1153 53.9349 31.1567 53.9355 31.2001C53.936 31.2434 53.9193 31.2852 53.889 31.3163L48.598 37.921Z" fill="#68E1FD"/>
<path d="M48.598 38.1963C48.5262 38.1967 48.4572 38.169 48.4055 38.1192L46.9177 36.6435C46.8901 36.6164 46.8685 36.5837 46.8544 36.5476C46.8402 36.5115 46.8338 36.4728 46.8357 36.4341C46.8375 36.3954 46.8474 36.3575 46.8649 36.3229C46.8824 36.2883 46.9069 36.2577 46.937 36.2333L53.482 30.873C53.5644 30.7975 53.6727 30.7564 53.7844 30.7583C53.8962 30.7601 54.003 30.8048 54.0829 30.883C54.1628 30.9612 54.2097 31.0671 54.2141 31.179C54.2184 31.2908 54.1798 31.4 54.1062 31.4842L48.8125 38.0917C48.7884 38.1215 48.7583 38.146 48.7242 38.1635C48.6902 38.1811 48.6528 38.1913 48.6145 38.1935L48.598 38.1963ZM47.5227 36.4673L48.576 37.5107L53.0145 31.9688L47.5227 36.4673Z" fill="#093F68"/>
<path d="M57.7638 30.0471C59.3509 30.0471 60.6375 28.759 60.6375 27.1701C60.6375 25.5812 59.3509 24.2931 57.7638 24.2931C56.1766 24.2931 54.89 25.5812 54.89 27.1701C54.89 28.759 56.1766 30.0471 57.7638 30.0471Z" fill="#FFBC0E"/>
<path d="M57.75 30.3224C56.9149 30.3224 56.114 29.9903 55.5235 29.3991C54.933 28.8079 54.6012 28.0061 54.6012 27.1701C54.6012 26.3341 54.933 25.5323 55.5235 24.9411C56.114 24.3499 56.9149 24.0178 57.75 24.0178H57.7665C58.6016 24.0178 59.4025 24.3499 59.993 24.9411C60.5835 25.5323 60.9152 26.3341 60.9152 27.1701C60.9152 28.0061 60.5835 28.8079 59.993 29.3991C59.4025 29.9903 58.6016 30.3224 57.7665 30.3224H57.75ZM57.75 24.5684C57.0605 24.5721 56.4007 24.8496 55.9154 25.34C55.4302 25.8304 55.1593 26.4936 55.1622 27.1839C55.1638 27.5256 55.2327 27.8636 55.3648 28.1787C55.4969 28.4938 55.6897 28.7797 55.9322 29.0202C56.1732 29.263 56.4605 29.4547 56.777 29.5838C57.0936 29.7129 57.4329 29.7769 57.7747 29.7718C58.464 29.7718 59.125 29.4977 59.6123 29.0098C60.0997 28.5219 60.3735 27.8601 60.3735 27.1701C60.3735 26.4801 60.0997 25.8183 59.6123 25.3304C59.125 24.8425 58.464 24.5684 57.7747 24.5684H57.75Z" fill="#093F68"/>
<path d="M65.78 26.3579L65.45 26.6773C63.8654 23.5545 61.3149 21.0283 58.179 19.4752L58.509 19.142C58.5954 19.0589 58.6873 18.9817 58.784 18.9108C60.5 17.5755 65.2025 16.6477 67.4905 16.2595C67.6394 16.2329 67.7924 16.2424 67.9369 16.2872C68.0813 16.3321 68.2129 16.4109 68.3207 16.5171C68.4284 16.6234 68.5091 16.7539 68.5561 16.8978C68.603 17.0418 68.6148 17.1948 68.5905 17.3443C68.2 19.6293 67.3255 24.3482 66 26.0826C65.9326 26.179 65.8591 26.271 65.78 26.3579V26.3579Z" fill="#68E1FD"/>
<path d="M65.45 26.9526H65.4033C65.3594 26.9453 65.318 26.9274 65.2826 26.9006C65.2471 26.8737 65.2187 26.8387 65.1997 26.7984C63.6421 23.7289 61.1337 21.2467 58.0498 19.7229C58.0097 19.7043 57.9748 19.6764 57.9478 19.6414C57.9209 19.6064 57.9028 19.5655 57.8949 19.522C57.8871 19.4786 57.8899 19.4339 57.9029 19.3917C57.916 19.3495 57.939 19.3111 57.97 19.2797L58.3 18.9411C58.3911 18.8499 58.4885 18.7653 58.5915 18.6878C60.3213 17.3387 64.867 16.411 67.4217 15.9787C67.6134 15.9459 67.81 15.9594 67.9953 16.0181C68.1807 16.0767 68.3494 16.1788 68.4874 16.3159C68.6253 16.453 68.7286 16.621 68.7887 16.8061C68.8487 16.9912 68.8637 17.188 68.8325 17.38C68.4255 19.9432 67.5427 24.5023 66.2172 26.245C66.1396 26.3471 66.056 26.4445 65.967 26.5369V26.5369L65.637 26.87C65.5876 26.9206 65.5206 26.9501 65.45 26.9526V26.9526ZM58.63 19.3898C61.5495 20.9272 63.9436 23.3029 65.505 26.212L65.5655 26.1514C65.6385 26.0754 65.7073 25.9954 65.7717 25.9119C67.0697 24.205 67.9717 19.3045 68.2825 17.2919C68.2993 17.1862 68.2907 17.0779 68.2574 16.9761C68.2241 16.8743 68.167 16.7819 68.091 16.7066C68.0149 16.6312 67.922 16.5751 67.82 16.5429C67.718 16.5106 67.6097 16.5031 67.5042 16.5211C65.4885 16.8625 60.6293 17.8013 58.9215 19.12C58.8388 19.1843 58.7598 19.2532 58.685 19.3265L58.63 19.3898Z" fill="#093F68"/>
<path d="M60.7255 59.4585C61.1023 59.6457 61.5505 59.4888 61.9685 59.5521C62.5928 59.6485 63.0273 60.2156 63.5938 60.4909C63.8763 60.6184 64.1837 60.6809 64.4936 60.6737C64.8034 60.6666 65.1076 60.59 65.384 60.4496C67.4272 59.4337 67.034 56.5237 64.625 56.8706C63.6708 57.0082 62.3975 57.1184 61.4983 57.4212C60.8163 57.6607 59.5485 58.8721 60.7255 59.4585Z" fill="#70CC40"/>
<path d="M64.4297 60.9507C64.0999 60.9519 63.7739 60.8795 63.4755 60.7387C63.2378 60.6146 63.013 60.467 62.8045 60.2982C62.5542 60.0723 62.2533 59.9099 61.9273 59.8247C61.7801 59.8094 61.6317 59.8094 61.4845 59.8247C61.1864 59.8667 60.8824 59.8277 60.6045 59.7118C60.4122 59.6409 60.2474 59.5107 60.1337 59.34C60.0201 59.1693 59.9634 58.9669 59.972 58.762C60.0188 58.0654 60.841 57.3661 61.4103 57.1707C62.2321 56.9321 63.0746 56.7717 63.9265 56.6916L64.5865 56.6035C65.9258 56.4081 66.6517 57.1266 66.88 57.8645C67.1687 58.7895 66.7892 60.0669 65.505 60.7002C65.1707 60.8657 64.8027 60.9514 64.4297 60.9507V60.9507ZM61.7293 59.2603C61.8213 59.2601 61.9132 59.2666 62.0043 59.2796C62.4227 59.3736 62.8099 59.5736 63.129 59.8605C63.3106 60.0051 63.5048 60.1331 63.7093 60.2431C63.9538 60.3514 64.2194 60.4038 64.4866 60.3966C64.7539 60.3895 65.0163 60.323 65.2547 60.2018C66.264 59.7008 66.5692 58.7262 66.3547 58.0214C66.1402 57.3166 65.5132 57.0192 64.6662 57.1404C64.4545 57.1734 64.229 57.201 63.9953 57.2312C63.181 57.3086 62.3755 57.4606 61.589 57.6855C61.1875 57.8232 60.5468 58.3738 60.5193 58.7867C60.5193 58.8556 60.5028 59.0345 60.8493 59.208C61.0442 59.276 61.2527 59.2958 61.457 59.2658C61.545 59.2658 61.6385 59.2603 61.7293 59.2603V59.2603Z" fill="#093F68"/>
<path d="M48.2048 62.4484H48.1773C46.3509 62.1458 44.6231 61.4112 43.1375 60.3055C41.6519 59.1999 40.4514 57.7551 39.6358 56.0915C34.9607 46.83 44.3273 40.1592 44.4208 40.0932C44.4502 40.0703 44.4841 40.0536 44.5202 40.0443C44.5563 40.0349 44.594 40.033 44.6309 40.0386C44.6677 40.0443 44.7031 40.0574 44.7348 40.0772C44.7664 40.0969 44.7937 40.1229 44.815 40.1536C44.8363 40.1843 44.8512 40.219 44.8587 40.2556C44.8661 40.2922 44.8661 40.3299 44.8585 40.3665C44.851 40.4031 44.8361 40.4378 44.8147 40.4684C44.7933 40.499 44.766 40.525 44.7343 40.5447C44.6435 40.608 35.6785 47.0117 40.128 55.8437C40.9015 57.4244 42.0397 58.798 43.4484 59.8512C44.8571 60.9044 46.496 61.6069 48.2295 61.9005C48.3024 61.9038 48.3711 61.936 48.4203 61.9899C48.4696 62.0439 48.4954 62.1152 48.4921 62.1882C48.4888 62.2612 48.4567 62.3299 48.4028 62.3793C48.3489 62.4286 48.2777 62.4544 48.2048 62.4511V62.4484Z" fill="white"/>
<path d="M41.3517 51.2598C41.2829 51.26 41.2165 51.2345 41.1655 51.1881C41.1146 51.1417 41.0829 51.0779 41.0767 51.0092C40.6807 46.6896 45.6225 42.0616 45.8342 41.8662C45.8858 41.8149 45.9555 41.7861 46.0281 41.7861C46.1008 41.7861 46.1705 41.8149 46.222 41.8662C46.2469 41.8927 46.2663 41.9238 46.2791 41.9579C46.2919 41.9919 46.2978 42.0282 46.2965 42.0645C46.2953 42.1009 46.2868 42.1366 46.2716 42.1696C46.2565 42.2027 46.2349 42.2324 46.2082 42.2571C46.1587 42.3012 41.2582 46.8988 41.624 50.9459C41.6274 50.9821 41.6236 51.0186 41.6128 51.0533C41.6021 51.088 41.5846 51.1202 41.5613 51.1481C41.538 51.176 41.5095 51.199 41.4773 51.2158C41.4451 51.2326 41.4099 51.2429 41.3737 51.246L41.3517 51.2598Z" fill="white"/>
<path d="M39.732 42.2241C39.675 42.2245 39.6192 42.2072 39.5725 42.1745C39.5427 42.1536 39.5174 42.1271 39.498 42.0964C39.4786 42.0657 39.4654 42.0314 39.4593 41.9956C39.4531 41.9597 39.4541 41.923 39.4622 41.8876C39.4704 41.8521 39.4854 41.8187 39.5065 41.7891C40.6065 40.2253 42.6717 38.5487 42.7597 38.4854C42.8167 38.4403 42.8892 38.4197 42.9613 38.428C43.0334 38.4362 43.0994 38.4727 43.1447 38.5294C43.19 38.5861 43.2111 38.6584 43.2034 38.7306C43.1956 38.8028 43.1597 38.869 43.1035 38.9148C43.0815 38.9314 41.0052 40.6135 39.9575 42.1139C39.9313 42.1489 39.8972 42.1771 39.858 42.1962C39.8188 42.2154 39.7756 42.2249 39.732 42.2241V42.2241Z" fill="white"/>
</svg>
