<svg width="556" height="259" viewBox="0 0 556 259" fill="none" xmlns="http://www.w3.org/2000/svg">
<path d="M84 249C114.847 228.255 81.1214 174.301 115 159C152.788 141.933 167.691 225.194 207 212C239.656 201.039 223.03 150.823 255 138C301.56 119.325 313.831 231.62 360 212C389.507 199.461 376.096 155.563 406 144C443.021 129.686 465.311 205.988 499 185C529.299 166.124 481.391 107.034 515 95C533.521 88.3683 543.588 106.279 556 120.98V0H0.5V230.235C26.2286 254.235 55.1583 268.397 84 249Z" fill="white"/>
</svg>
